<mxfile host="app.diagrams.net" modified="2023-09-25T23:16:34.647Z" agent="Mozilla/5.0 (Windows NT 10.0; Win64; x64) AppleWebKit/537.36 (KHTML, like Gecko) Chrome/116.0.0.0 Safari/537.36" etag="MPqojaNgjWOC9oQ_-zAL" version="21.8.2" type="device">
  <diagram name="PÃ¡gina-1" id="91qndoXUmYt-RQdcchbU">
    <mxGraphModel dx="1434" dy="1959" grid="1" gridSize="10" guides="1" tooltips="1" connect="1" arrows="1" fold="1" page="1" pageScale="1" pageWidth="827" pageHeight="1169" background="none" math="0" shadow="0">
      <root>
        <mxCell id="0" />
        <mxCell id="1" parent="0" />
        <mxCell id="IcstKcz0tCEPUuvqy546-12" style="edgeStyle=orthogonalEdgeStyle;rounded=0;orthogonalLoop=1;jettySize=auto;html=1;entryX=0.75;entryY=0;entryDx=0;entryDy=0;" edge="1" parent="1" source="IcstKcz0tCEPUuvqy546-2" target="IcstKcz0tCEPUuvqy546-3">
          <mxGeometry relative="1" as="geometry" />
        </mxCell>
        <mxCell id="IcstKcz0tCEPUuvqy546-13" style="edgeStyle=orthogonalEdgeStyle;rounded=0;orthogonalLoop=1;jettySize=auto;html=1;exitX=0.5;exitY=1;exitDx=0;exitDy=0;entryX=0.5;entryY=0;entryDx=0;entryDy=0;" edge="1" parent="1" source="IcstKcz0tCEPUuvqy546-2" target="IcstKcz0tCEPUuvqy546-4">
          <mxGeometry relative="1" as="geometry" />
        </mxCell>
        <mxCell id="IcstKcz0tCEPUuvqy546-15" style="edgeStyle=orthogonalEdgeStyle;rounded=0;orthogonalLoop=1;jettySize=auto;html=1;exitX=0.5;exitY=1;exitDx=0;exitDy=0;entryX=0.5;entryY=0;entryDx=0;entryDy=0;" edge="1" parent="1" source="IcstKcz0tCEPUuvqy546-2" target="IcstKcz0tCEPUuvqy546-5">
          <mxGeometry relative="1" as="geometry" />
        </mxCell>
        <mxCell id="IcstKcz0tCEPUuvqy546-17" style="edgeStyle=orthogonalEdgeStyle;rounded=0;orthogonalLoop=1;jettySize=auto;html=1;entryX=0.5;entryY=0;entryDx=0;entryDy=0;" edge="1" parent="1" source="IcstKcz0tCEPUuvqy546-2" target="IcstKcz0tCEPUuvqy546-7">
          <mxGeometry relative="1" as="geometry" />
        </mxCell>
        <mxCell id="IcstKcz0tCEPUuvqy546-19" style="edgeStyle=orthogonalEdgeStyle;rounded=0;orthogonalLoop=1;jettySize=auto;html=1;exitX=0.5;exitY=1;exitDx=0;exitDy=0;entryX=0.5;entryY=0;entryDx=0;entryDy=0;" edge="1" parent="1" source="IcstKcz0tCEPUuvqy546-2" target="IcstKcz0tCEPUuvqy546-6">
          <mxGeometry relative="1" as="geometry" />
        </mxCell>
        <mxCell id="IcstKcz0tCEPUuvqy546-2" value="personagem" style="rounded=1;whiteSpace=wrap;html=1;" vertex="1" parent="1">
          <mxGeometry x="255" y="-10" width="120" height="60" as="geometry" />
        </mxCell>
        <mxCell id="IcstKcz0tCEPUuvqy546-3" value="Orc" style="rounded=1;whiteSpace=wrap;html=1;" vertex="1" parent="1">
          <mxGeometry x="560" y="165" width="100" height="50" as="geometry" />
        </mxCell>
        <mxCell id="IcstKcz0tCEPUuvqy546-4" value="humano" style="rounded=1;whiteSpace=wrap;html=1;" vertex="1" parent="1">
          <mxGeometry x="390" y="170" width="130" height="50" as="geometry" />
        </mxCell>
        <mxCell id="IcstKcz0tCEPUuvqy546-5" value="Elfo" style="rounded=1;whiteSpace=wrap;html=1;" vertex="1" parent="1">
          <mxGeometry x="280" y="170" width="70" height="50" as="geometry" />
        </mxCell>
        <mxCell id="IcstKcz0tCEPUuvqy546-6" value="mago" style="rounded=1;whiteSpace=wrap;html=1;" vertex="1" parent="1">
          <mxGeometry x="160" y="170" width="80" height="40" as="geometry" />
        </mxCell>
        <mxCell id="IcstKcz0tCEPUuvqy546-7" value="paladino" style="rounded=1;whiteSpace=wrap;html=1;arcSize=20;" vertex="1" parent="1">
          <mxGeometry x="40" y="180" width="90" height="40" as="geometry" />
        </mxCell>
      </root>
    </mxGraphModel>
  </diagram>
</mxfile>
